<svg id="svg" fill="#000000" stroke="#000000" width="200px" height="200px" version="1.1" viewBox="144 144 512 512" xmlns="http://www.w3.org/2000/svg">
    <g id="IconSvg_bgCarrier" stroke-width="0"></g>
    <g id="IconSvg_tracerCarrier" stroke-linecap="round" stroke-linejoin="round" stroke="#CCCCCC"></g>
     <g id="IconSvg_iconCarrier">
      <g xmlns="http://www.w3.org/2000/svg">
  <path d="m396.69 186.59c-4.3477 0-7.8711-3.5273-7.8711-7.875v-14.879c0-4.3477 3.5234-7.8711 7.8711-7.8711s7.8711 3.5234 7.8711 7.8711v14.879c0 4.3477-3.5234 7.875-7.8711 7.875z"></path>
  <path d="m427.39 208c-3.0117 0.007812-5.7617-1.707-7.0859-4.4102-1.9688-3.8281-0.49609-8.5273 3.3047-10.547l13.305-6.6133c3.8672-1.7734 8.4414-0.16016 10.336 3.6484 1.8906 3.8086 0.41797 8.4336-3.3281 10.441l-13.305 6.6133c-1.0078 0.50391-2.1055 0.80078-3.2266 0.86719z"></path>
  <path d="m365.75 206.9c-1.4727 0.003906-2.918-0.40625-4.1719-1.1797l-12.594-7.8711v-0.003906c-1.7656-1.1172-3.0117-2.8867-3.4727-4.9258-0.45703-2.0352-0.085937-4.1719 1.0312-5.9375 1.1172-1.7617 2.8906-3.0117 4.9258-3.4688 2.0391-0.45703 4.1758-0.085938 5.9375 1.0312l12.594 7.8711h0.003906c2.9258 1.8906 4.2617 5.4844 3.2812 8.8281-0.98437 3.3438-4.0469 5.6484-7.5352 5.6562z"></path>
  <path d="m526.66 644.03h-2.9922c-5.5195-0.67578-10.059-4.6797-11.414-10.078-1.0625-3.9023-0.28125-8.0781 2.125-11.332 8.7617-9.5898 19.895-16.703 32.277-20.625 1.1172-6.7148 0.15234-13.609-2.7578-19.762-1.0234-3.0703-2.125-6.2188-2.9141-9.3672l-15.742-62.27v0.003906c-0.80859-3.0352-2.9961-5.5117-5.9023-6.6914-5.668-2.2812-55.969-23.617-77.223-74.469-16.215-38.809-34.402-165.31-31.016-187.2l-0.003906-0.003906c0.5-3.0938 2.7891-5.6016 5.8242-6.375l116.27-30.309c2.9375-0.66016 5.9922 0.41016 7.875 2.7578 15.191 18.969 59.668 139.8 63.605 178.77 4.5664 41.328-16.926 77.617-35.738 100.84-1.9844 2.4453-2.6836 5.6914-1.8906 8.7383l15.742 62.188c2.1211 11.027 6.9336 21.355 14.016 30.07 12.777-2.4375 25.969-1.5977 38.336 2.4414 3.6641 1.6992 6.3555 4.9727 7.3203 8.8945 1.4062 5.3984-0.62109 11.105-5.1172 14.406-11.055 5.8125-22.797 10.203-34.953 13.066l-3.1484 0.94531c-5.5898 1.7305-32.746 8.7383-39.359 9.9961l-11.02 2.125v0.003907c-7.293 1.7148-14.723 2.793-22.199 3.2266zm-100.61-394.47c0 29.676 16.375 140.52 30.309 173.66v0.003906c13.922 29.703 38.348 53.199 68.562 65.965 7.5273 3.0391 13.164 9.4648 15.195 17.32l16.137 62.27c0.70703 2.832 1.6523 5.5898 2.5195 8.2656v-0.003907c4.0664 9.1172 5.1406 19.285 3.0703 29.051-1.3711 4.832-4.9688 8.7227-9.6836 10.469-7.6758 2.7773-14.871 6.7344-21.332 11.73 3.8555-0.55078 9.2109-1.6523 15.035-2.7539l11.098-2.2031c6.0625-1.1016 32.746-7.8711 37.785-9.5234l3.0703-0.94531c10.941-3.3867 20.23-6.2188 25.82-8.5l0.003906-0.007812c-8.0859-1.2852-16.32-1.2852-24.406 0-4.9688 0.75391-10-0.91406-13.539-4.4844-8.9609-10.652-14.988-23.461-17.477-37.156l-15.742-62.188v-0.003906c-2.0117-7.8789-0.20312-16.246 4.8789-22.594 17.004-20.859 36.367-53.293 32.434-89.191-3.9375-35.895-43.453-140.75-58.094-166.49z"></path>
  <path d="m589.32 360.64-160.27-8.5c-2.0898-0.10156-4.0508-1.0312-5.4531-2.582-1.4062-1.5508-2.1328-3.5938-2.0273-5.6836 0.25-4.1641 3.7031-7.4062 7.875-7.3984l160.27 8.4219c4.3477 0.10938 7.7852 3.7227 7.6758 8.0703s-3.7227 7.7812-8.0703 7.6719z"></path>
  <path d="m273.34 644.03c-7.5078-0.48047-14.961-1.6133-22.277-3.3867l-10.941-2.125c-6.6914-1.2578-33.852-7.8711-39.359-9.9961l-3.1484-0.94531c-12.172-2.8438-23.922-7.2656-34.953-13.145-4.5-3.2617-6.5312-8.9531-5.1172-14.328 0.96484-3.9219 3.6562-7.1953 7.3203-8.8945 12.371-4.043 25.574-4.8281 38.34-2.2852 6.8555-8.7773 11.449-19.102 13.383-30.07l15.742-62.188c0.79297-3.0469 0.09375-6.293-1.8906-8.7383-18.496-23.223-39.988-59.594-35.109-100.84 4.3281-39.359 48.805-159.8 63.684-178.77h0.003907c1.8789-2.3477 4.9375-3.418 7.8711-2.7578l116.59 30.148v0.003907c3.0352 0.77344 5.3242 3.2773 5.8242 6.375 3.7773 23.617-15.742 150.98-31.016 187.2-21.254 50.695-71.559 72.188-77.223 74.469h-0.003907c-2.8984 1.1719-5.0664 3.6562-5.8242 6.6914l-16.137 62.27c-0.78906 3.1484-1.8906 6.2969-2.832 9.2891h-0.003906c-2.9375 6.1406-3.9531 13.027-2.9102 19.758 12.359 4.0547 23.492 11.176 32.352 20.703 2.418 3.25 3.2031 7.4336 2.125 11.336-1.3398 5.4922-5.9531 9.5742-11.57 10.234zm-96.98-39.988c5.5898 2.2812 14.801 5.1172 25.82 8.5l3.0703 0.94531c5.0391 1.4961 31.488 8.4219 37.785 9.5234l11.098 2.2031c5.8242 1.1016 11.18 2.2031 15.035 2.7539v0.003906c-6.5-4.8945-13.723-8.7461-21.41-11.414-4.6836-1.7656-8.25-5.6523-9.6055-10.469-2.0703-9.7656-0.99609-19.934 3.0703-29.051 0.86719-2.7539 1.8125-5.5117 2.5195-8.2656l15.742-62.27 0.003906 0.003906c2.0547-7.8438 7.6836-14.262 15.191-17.32 30.305-12.605 54.891-35.957 69.039-65.574 13.855-33.141 30.621-143.98 30.23-173.66l-105.64-27.707c-14.645 25.738-53.766 130.52-57.703 166.57-3.9375 36.055 15.742 68.328 32.434 89.191 5.1172 6.3281 6.9297 14.711 4.8789 22.59l-15.742 62.188v0.003907c-2.6328 13.738-8.8242 26.551-17.949 37.156-3.4766 3.6328-8.4766 5.3867-13.461 4.7227-8.0508-1.4961-16.285-1.707-24.402-0.62891z"></path>
  <path d="m211.07 360.64c-4.3477 0-7.8711-3.5234-7.8711-7.8711s3.5234-7.8711 7.8711-7.8711l159.88-8.4219c4.3477-0.21875 8.0508 3.1289 8.2656 7.4766 0.21875 4.3477-3.1289 8.0469-7.4766 8.2656z"></path>
 </g>

      </g>
      </svg>